<?xml version="1.0" encoding="UTF-8"?>
<svg version="1.1" xmlns="http://www.w3.org/2000/svg" width="100" height="100">
<path d="M0 0 C33 0 66 0 100 0 C100 33 100 66 100 100 C67 100 34 100 0 100 C0 67 0 34 0 0 Z " fill="#FEFEFE" transform="translate(0,0)"/>
<path d="M0 0 C0.95003906 -0.01675781 1.90007813 -0.03351562 2.87890625 -0.05078125 C5.83582649 0.36905628 6.53504916 1.11646106 8.4375 3.3125 C10.24619466 3.00829454 10.24619466 3.00829454 12.4375 2.3125 C19.49992038 1.63988854 19.49992038 1.63988854 23.3125 4.375 C25.67381916 7.63917648 26.53728414 10.41156462 27.4375 14.3125 C27.9325 14.8075 27.9325 14.8075 28.4375 15.3125 C28.875 18.5625 28.875 18.5625 28.4375 22.3125 C24.83922002 26.27060798 21.32750029 27.96077495 16.30859375 29.62109375 C14.24151607 30.30074248 14.24151607 30.30074248 11.9375 32 C8.3239074 33.89713612 5.48625726 33.51836901 1.4375 33.3125 C1.33953125 34.0859375 1.2415625 34.859375 1.140625 35.65625 C0.18467854 42.31491153 -1.04218543 47.55198526 -4.5625 53.3125 C-8.07845179 55.65646786 -9.36337147 55.50035238 -13.5 55.375 C-19.88718245 55.27464023 -26.2268816 55.42769812 -32.5625 56.3125 C-32.8925 56.6425 -33.2225 56.9725 -33.5625 57.3125 C-40.58077676 57.8973564 -40.58077676 57.8973564 -44.5 55.5625 C-46.5235478 53.35499331 -47.2483889 52.24420364 -47.5625 49.3125 C-48.09875 49.250625 -48.635 49.18875 -49.1875 49.125 C-53.20474648 47.75067883 -56.51532506 45.0424613 -58.71875 41.40234375 C-60.89893674 36.00234418 -59.86360476 30.42136347 -58 25.0625 C-56.21614077 21.07212499 -54.38004394 18.39365474 -50.64453125 16.07421875 C-46.69765457 14.63023948 -42.69210497 14.9385921 -38.5625 15.3125 C-38.5625 15.6425 -38.5625 15.9725 -38.5625 16.3125 C-39.16578125 16.33828125 -39.7690625 16.3640625 -40.390625 16.390625 C-45.66785339 16.71581983 -45.66785339 16.71581983 -50.125 19.375 C-50.599375 20.014375 -51.07375 20.65375 -51.5625 21.3125 C-50.9025 20.9825 -50.2425 20.6525 -49.5625 20.3125 C-42.45969626 19.95735981 -42.45969626 19.95735981 -38.5625 21.5 C-34.72664853 22.53887644 -33.18130962 21.53250694 -29.6640625 19.984375 C-26.11443853 18.84955098 -23.17172668 19.60354476 -19.5625 20.3125 C-19.5625 19.3225 -19.5625 18.3325 -19.5625 17.3125 C-20.635 17.168125 -21.7075 17.02375 -22.8125 16.875 C-25.47912949 16.47500558 -27.97649729 16.03658076 -30.5625 15.3125 C-26.67340149 14.01613383 -23.22430603 14.28751492 -19.15625 14.375 C-16.4458336 14.43654608 -16.4458336 14.43654608 -13.5625 13.3125 C-13.645 12.425625 -13.7275 11.53875 -13.8125 10.625 C-13.50445788 6.54344191 -12.42307917 5.17307917 -9.5625 2.3125 C-6.34793052 0.30251865 -3.7636392 0.01536179 0 0 Z " fill="#D8F3FE" transform="translate(61.5625,26.6875)"/>
<path d="M0 0 C0.95003906 -0.01675781 1.90007813 -0.03351562 2.87890625 -0.05078125 C5.83582649 0.36905628 6.53504916 1.11646106 8.4375 3.3125 C10.24619466 3.00829454 10.24619466 3.00829454 12.4375 2.3125 C19.49992038 1.63988854 19.49992038 1.63988854 23.3125 4.375 C25.67381916 7.63917648 26.53728414 10.41156462 27.4375 14.3125 C27.9325 14.8075 27.9325 14.8075 28.4375 15.3125 C28.875 18.5625 28.875 18.5625 28.4375 22.3125 C24.83922002 26.27060798 21.32750029 27.96077495 16.30859375 29.62109375 C14.24151607 30.30074248 14.24151607 30.30074248 11.9375 32 C8.3239074 33.89713612 5.48625726 33.51836901 1.4375 33.3125 C0.7775 37.2725 0.1175 41.2325 -0.5625 45.3125 C-0.8925 45.3125 -1.2225 45.3125 -1.5625 45.3125 C-1.8925 41.6825 -2.2225 38.0525 -2.5625 34.3125 C-1.9025 34.3125 -1.2425 34.3125 -0.5625 34.3125 C-2.22648126 31.06757573 -2.22648126 31.06757573 -5.20703125 30.72265625 C-6.25246094 30.60792969 -7.29789063 30.49320313 -8.375 30.375 C-13.13888599 29.67812459 -16.35693132 29.18128979 -19.5625 25.3125 C-20.70673449 21.96152756 -20.69450586 20.70851757 -19.5625 17.3125 C-20.635 17.168125 -21.7075 17.02375 -22.8125 16.875 C-25.47912949 16.47500558 -27.97649729 16.03658076 -30.5625 15.3125 C-26.67340149 14.01613383 -23.22430603 14.28751492 -19.15625 14.375 C-16.4458336 14.43654608 -16.4458336 14.43654608 -13.5625 13.3125 C-13.68625 11.9821875 -13.68625 11.9821875 -13.8125 10.625 C-13.50445788 6.54344191 -12.42307917 5.17307917 -9.5625 2.3125 C-6.34793052 0.30251865 -3.7636392 0.01536179 0 0 Z " fill="#C8E6FE" transform="translate(61.5625,26.6875)"/>
<path d="M0 0 C0 0.33 0 0.66 0 1 C-0.59167969 1.01417969 -1.18335938 1.02835938 -1.79296875 1.04296875 C-6.22337446 1.31038312 -8.3918845 1.48442382 -11.875 4.4375 C-12.57625 5.283125 -13.2775 6.12875 -14 7 C-14.99 7.66 -15.98 8.32 -17 9 C-16.80037128 5.40668306 -16.21261372 4.20171045 -13.5625 1.6875 C-8.90290837 -0.51967498 -5.06438342 -0.36031186 0 0 Z " fill="#ACDEF3" transform="translate(23,42)"/>
<path d="M0 0 C1.32 0.33 2.64 0.66 4 1 C3.34 4.3 2.68 7.6 2 11 C1.67 11 1.34 11 1 11 C0.67 7.37 0.34 3.74 0 0 Z " fill="#A4DCF4" transform="translate(59,61)"/>
</svg>
